<?xml version="1.0" encoding="UTF-8"?>
<svg id="Layer_1" data-name="Layer 1" xmlns="http://www.w3.org/2000/svg" viewBox="0 0 1080 1080">
  <defs>
    <style>
      .cls-1 {
        fill: #00a5ed;
      }

      .cls-2 {
        fill: #fefeff;
      }
    </style>
  </defs>
  <path class="cls-1" d="m1079.89,914.52c0,18.76-.88,37.67-7.34,55.61-5.95,16.55-12.46,32.93-22.88,47.22-12.97,17.82-29.12,31.94-48.54,42.58-12.79,7-26.42,11.86-39.98,16.49-7.12,2.43-15.28,1.6-23.01,2.26v1.28c-259.77,0-519.54-.12-779.36.05-31.12.06-59.29-8.43-85.49-24.82-6.58-4.09-12.79-8.58-18.64-13.44-10.17-8.44-19.24-18.05-27.19-28.76-10.25-13.77-18.16-28.99-22.35-45.54-.59-2.34-1.09-4.7-1.53-7.08-2.37-13.18-3.58-26.64-3.58-40.21.16-253.3.16-506.66.22-759.97,0-16.87,2.49-33.26,7.77-49.52,5.24-16.27,12.14-31.5,21.23-45.79,5.57-8.71,12.85-16.22,20.68-23.06C70.65,23.61,93.88,9.87,121.06,4.13,136.39.89,152.17.12,167.83.12,414.81.12,661.78.22,908.76,0,926.79,0,944.49,2.49,962.09,5.24c13.35,2.04,25.7,8.44,37.61,15.05,14.13,7.89,27.25,17.44,38.45,28.69,11.75,11.86,21.18,26.04,27.79,41.65,7.17,16.77,11.26,34.09,12.81,52.46,1.15,13.95,1.15,27.8,1.15,41.65.12,243.26.17,486.52,0,729.78Z"/>
  <path class="cls-2" d="m894.78,827.14c-11.16.86-22.17-.46-32.99-2.9-3.8-.86-7.49-2.97-10.79-5.17-12.88-8.6-23.97-19.4-27.04-34.87-1.5-7.54-4.39-14.95-4.01-23.18.75-16.35-2.09-32.6-3.36-48.89-.82-10.55-2.01-21.12-3.17-31.6-1.06-9.61-4.56-18.97-6.37-28.61-1.35-7.19-1.91-15.12-5.46-21.18-6.22-10.62-9.71-23.34-19.91-31.11-3.87-2.95-8.9-5.59-15.04-4.05-4.14,1.04-8.1-2.51-12.63-3.24-16.36-2.66-32.35-6.88-49.08-8.22-6.78-.54-14.08-3.33-21.35-4.55-13.09-2.2-26.15-4.49-39.25-6.45-10.79-1.62-21.95-4.35-32.8-7.14-12.88-3.31-26.48-4.97-37.93-12.43-13.8-8.99-22.56-21.62-26.61-37.8-4.42-17.67,1.83-32.48,11.16-46.59,25.2-38.14,50.57-76.17,75.83-114.27,5.61-8.47,5.45-8.42-1.75-15.21-6.16-5.82-12.15-11.86-19.62-16-12.77-7.06-26.26-8.42-40.69-6.09-17.42,2.81-33.8,8.26-49.32,16.37-3.87,2.03-7.18,5.29-10.41,8.35-10.2,9.65-19.84,19.94-30.44,29.12-16.97,14.7-38.56,16.14-54.7-1.96-14.74-16.53-13.3-33.1.01-50.47,21.2-27.67,48.12-48.5,80-62.51,21.27-9.35,43.67-14.37,66.84-17.53,13.51-1.85,25.78,4.43,38.79,2.01,27.5,9.02,53.37,20.59,73.34,42.79,8.76,9.74,17.05,19.69,23.96,30.77,12.9,20.68,13.13,41.75.32,62.35-23.01,37.02-46.6,73.68-72.05,109.1-3.17,4.41-2.55,6.57,3,7.17,18.95,2.08,37.4,6.95,56.19,9.94,20.89,3.33,41.79,6.81,62.46,11.26,11.58,2.49,23.35,3.91,34.83,6.86,18.3,4.7,33.17,14.74,45.76,28.5,13.87,15.17,23.69,32.64,30.83,51.93,6.13,16.55,11.75,33.24,15.64,50.4,2.88,12.72,4.31,25.78,6.08,38.73,2.56,18.7,5.03,37.43,4.17,56.39-.2,4.32,3.39,3.52,5.33,3.01,9.21-2.44,17.68.85,26.32,2.85,13.64,3.15,23.83,15.13,24.87,29.05,1.91,25.75-8.98,39.25-34.53,43.97-8.21,1.52-16.32.63-24.45,1.11Z"/>
  <path class="cls-2" d="m703.32,669.06c-2.66,23.86-9.22,46.74-21.06,67.78-13.68,24.35-28.84,48.19-50.21,66.13-33.49,28.13-126.21,121.44-170.2,129.36-8.74,1.58,37.76-69,28.74-68.85-5.54.09-11.31,2.72-17.22,2.12-12.08-1.22-197.98,102.72-210.07,99.83-12.1-2.89,114.63-122.56,103.23-128.25-18.78-9.39-177.15,108.57-311.88,204.55-10.17-8.44-19.24-18.05-27.19-28.76-10.25-13.77-18.16-28.99-22.35-45.54,110.72-126.97,243.81-273.45,240.58-293.46-191.46,160.43-241.62,192.17,9.6-113.42,5.84-17.97-40.54,12.57-30.61-3.32,36.85-59.68,130.28-119.5,143.45-127.01,18.64-10.64,38.52-17.96,59.54-22.3,22.25-4.58,44.68-5.54,67.31-4.15,10.23.63,16.2,5.41,10.7,17.56-8.31,18.34-18.68,35.6-28.16,53.33-2.96,5.52-9.57,5.84-15,6.25-18.93,1.45-37.02,6.21-53.84,14.63-32.82,16.41-58.38,40.75-74.09,74.14-10.64,22.62-14.38,46.73-13.45,72,1.46,39.38,17.4,72.27,43.77,99.99,15.28,16.08,33.25,29.7,55.02,37.03,23.4,7.88,47.02,11.41,71.85,8.28,38.6-4.86,70.59-21.09,96.35-50.45,15.76-17.98,27.28-37.87,34.25-60.71,2.98-9.76,4.17-19.45,4.39-29.54.15-6.53,1.2-13.18,2.93-19.48.75-2.75,3.41-4.22,7.82-4.87,10.92-1.62,19.65,4.53,29.69,5.52,10.41,1.04,20.61,4.22,30.94,6.24,4.24.84,5.02,3.92,5.75,7.33,1.97,9.39.46,18.81-.58,28.03Z"/>
  <path class="cls-2" d="m706.43,210.25c-.73-39.76,33.02-77.02,75.15-76.47,44.87.59,71.23,33.08,75.99,64.28,1.33,8.75,2.82,18.57.88,26.13-6.02,23.43-19.51,42.49-41.81,54.21-11.1,5.83-23.05,9.51-35.22,8.9-40.56-2.02-75.87-34.43-74.99-77.05Z"/>
</svg>